<?xml version="1.0" encoding="UTF-8"?>
<svg width="24px" height="24px" viewBox="0 0 24 24" version="1.1" xmlns="http://www.w3.org/2000/svg" xmlns:xlink="http://www.w3.org/1999/xlink">
    <title>Light Mode</title>
    <g stroke="none" stroke-width="1" fill="none" fill-rule="evenodd">
        <path d="M12,17 C14.7614,17 17,14.7614 17,12 C17,9.23858 14.7614,7 12,7 C9.23858,7 7,9.23858 7,12 C7,14.7614 9.23858,17 12,17 Z M12,15 C10.3431,15 9,13.6569 9,12 C9,10.3431 10.3431,9 12,9 C13.6569,9 15,10.3431 15,12 C15,13.6569 13.6569,15 12,15 Z" fill="#1a73e8" fill-rule="nonzero"></path>
        <path d="M12,5 C12.5523,5 13,4.55228 13,4 L13,3 C13,2.44772 12.5523,2 12,2 C11.4477,2 11,2.44772 11,3 L11,4 C11,4.55228 11.4477,5 12,5 Z" fill="#1a73e8" fill-rule="nonzero"></path>
        <path d="M12,22 C12.5523,22 13,21.5523 13,21 L13,20 C13,19.4477 12.5523,19 12,19 C11.4477,19 11,19.4477 11,20 L11,21 C11,21.5523 11.4477,22 12,22 Z" fill="#1a73e8" fill-rule="nonzero"></path>
        <path d="M21,13 L20,13 C19.4477,13 19,12.5523 19,12 C19,11.4477 19.4477,11 20,11 L21,11 C21.5523,11 22,11.4477 22,12 C22,12.5523 21.5523,13 21,13 Z" fill="#1a73e8" fill-rule="nonzero"></path>
        <path d="M4,13 L3,13 C2.44772,13 2,12.5523 2,12 C2,11.4477 2.44772,11 3,11 L4,11 C4.55228,11 5,11.4477 5,12 C5,12.5523 4.55228,13 4,13 Z" fill="#1a73e8" fill-rule="nonzero"></path>
        <path d="M18.364,7.05 L17.657,7.757 C17.2665,8.1475 16.6334,8.1475 16.243,7.757 C15.8525,7.3666 15.8525,6.7334 16.243,6.343 L16.95,5.636 C17.3405,5.2455 17.9736,5.2455 18.364,5.636 C18.7545,6.0265 18.7545,6.6596 18.364,7.05 Z" fill="#1a73e8" fill-rule="nonzero"></path>
        <path d="M7.757,17.657 L7.05,18.364 C6.6595,18.7545 6.0264,18.7545 5.636,18.364 C5.2455,17.9735 5.2455,17.3404 5.636,16.95 L6.343,16.243 C6.7334,15.8525 7.3666,15.8525 7.757,16.243 C8.1475,16.6334 8.1475,17.2666 7.757,17.657 Z" fill="#1a73e8" fill-rule="nonzero"></path>
        <path d="M18.364,16.95 C18.7545,17.3404 18.7545,17.9736 18.364,18.364 C17.9736,18.7545 17.3405,18.7545 16.95,18.364 L16.243,17.657 C15.8525,17.2666 15.8525,16.6334 16.243,16.243 C16.6334,15.8525 17.2665,15.8525 17.657,16.243 L18.364,16.95 Z" fill="#1a73e8" fill-rule="nonzero"></path>
        <path d="M7.757,6.343 C8.1475,6.7334 8.1475,7.3666 7.757,7.757 C7.3666,8.1475 6.7334,8.1475 6.343,7.757 L5.636,7.05 C5.2455,6.6596 5.2455,6.0265 5.636,5.636 C6.0264,5.2455 6.6595,5.2455 7.05,5.636 L7.757,6.343 Z" fill="#1a73e8" fill-rule="nonzero"></path>
    </g>
</svg> 